<svg xmlns="http://www.w3.org/2000/svg" viewBox="0 0 64 64">
  <rect width="64" height="64" rx="32" fill="#f3efe4"/>
  <circle cx="32" cy="32" r="27" fill="none" stroke="#173d31" stroke-width="2"/>
  <path d="M42 20.5c-2.3-2.4-5.5-3.7-9.2-3.7-8.6 0-14.6 6.4-14.6 15.4 0 9.1 5.8 15 14.4 15 4.4 0 8-1.6 10.5-4.7l-4.2-4.4c-1.5 1.9-3.4 2.8-5.8 2.8-4.8 0-7.8-3.5-7.8-8.9 0-5.5 3-8.9 7.8-8.9 2.2 0 4.1.8 5.5 2.5z" fill="#173d31"/>
  <path d="M48.5 25.6c-1.6-1.2-3.8-1.9-6.2-1.9-4.7 0-7.9 2.5-7.9 6.3 0 3.4 2.2 5.2 6.5 6.4 2.4.7 3.2 1.3 3.2 2.4 0 1.2-1.1 1.9-2.8 1.9-2 0-4-.8-5.6-2.2l-2.6 4.1c2 1.8 5 2.8 8.1 2.8 5.3 0 8.8-2.7 8.8-6.9 0-3.5-2.2-5.3-6.8-6.7-2.2-.6-3-1.1-3-2.1 0-1 .9-1.6 2.4-1.6 1.4 0 2.8.5 4.1 1.4z" fill="#d55331"/>
</svg>
